<?xml version="1.0" encoding="UTF-8" standalone="no"?>
<!-- Created with Inkscape (http://www.inkscape.org/) -->

<svg
   width="210mm"
   height="297mm"
   viewBox="0 0 210 297"
   version="1.1"
   id="svg417313"
   inkscape:version="1.1.2 (0a00cf5339, 2022-02-04)"
   sodipodi:docname="JAYS CLOSET LOGO.svg"
   xmlns:inkscape="http://www.inkscape.org/namespaces/inkscape"
   xmlns:sodipodi="http://sodipodi.sourceforge.net/DTD/sodipodi-0.dtd"
   xmlns:xlink="http://www.w3.org/1999/xlink"
   xmlns="http://www.w3.org/2000/svg"
   xmlns:svg="http://www.w3.org/2000/svg">
  <sodipodi:namedview
     id="namedview417315"
     pagecolor="#ffffff"
     bordercolor="#666666"
     borderopacity="1.0"
     inkscape:pageshadow="2"
     inkscape:pageopacity="0.0"
     inkscape:pagecheckerboard="0"
     inkscape:document-units="mm"
     showgrid="false"
     inkscape:zoom="0.4187009"
     inkscape:cx="192.26135"
     inkscape:cy="500.35718"
     inkscape:window-width="1366"
     inkscape:window-height="642"
     inkscape:window-x="0"
     inkscape:window-y="0"
     inkscape:window-maximized="1"
     inkscape:current-layer="layer1" />
  <defs
     id="defs417310">
    <linearGradient
       id="linearGradient510692"
       inkscape:swatch="solid">
      <stop
         style="stop-color:#000000;stop-opacity:0.64705884;"
         offset="0"
         id="stop510690" />
    </linearGradient>
    <linearGradient
       inkscape:collect="always"
       xlink:href="#linearGradient510692"
       id="linearGradient510694"
       x1="54.999793"
       y1="143.38034"
       x2="93.463575"
       y2="143.38034"
       gradientUnits="userSpaceOnUse" />
  </defs>
  <g
     inkscape:label="Layer 1"
     inkscape:groupmode="layer"
     id="layer1">
    <g
       aria-label="JAYS CLOSET"
       id="text420047"
       style="font-size:5.64444px;line-height:1.25;font-family:msbm10;-inkscape-font-specification:'msbm10, Normal';stroke-width:0.365;fill:none;stroke:url(#linearGradient510694);stroke-miterlimit:4;stroke-dasharray:none"
       inkscape:export-filename="/home/denis/Desktop/FASHIONABLE APP2/images/logo4.png"
       inkscape:export-xdpi="96"
       inkscape:export-ydpi="96">
      <path
         d="m 54.999797,144.94583 q 0,-0.10473 0.05512,-0.19293 0.05512,-0.091 0.151584,-0.14331 0.09646,-0.0524 0.201193,-0.0524 0.104731,0 0.198438,0.0524 0.09646,0.0524 0.151584,0.14331 0.05512,0.0882 0.05512,0.19293 0,0.0992 -0.03307,0.16536 -0.03307,0.0634 -0.07993,0.12402 -0.0441,0.0606 -0.0441,0.0882 0,0.0579 0.23151,0.0579 0.137804,0 0.242535,-0.0992 0.107487,-0.0992 0.107487,-0.23978 v -3.23288 q 0,-0.15434 -0.05237,-0.22324 -0.05236,-0.0689 -0.146072,-0.0827 -0.09095,-0.0165 -0.286631,-0.0165 -0.09095,-0.0193 -0.09095,-0.10197 0,-0.0331 0.02481,-0.0634 0.02756,-0.0331 0.06615,-0.0331 h 1.81074 q 0.09095,0.0193 0.09095,0.0965 0,0.0827 -0.09095,0.10197 h -0.01654 q -0.184657,0 -0.259071,0.0165 -0.07166,0.0138 -0.101975,0.0854 -0.02756,0.0689 -0.02756,0.23151 v 2.70922 q 0,0.36105 -0.165364,0.59807 -0.165364,0.23702 -0.446484,0.34451 -0.28112,0.10748 -0.636653,0.10748 -0.206706,0 -0.418923,-0.0661 -0.209462,-0.0661 -0.350022,-0.20946 -0.14056,-0.14332 -0.14056,-0.35829 z m 1.350477,0.38309 q 0.300412,-0.0772 0.454752,-0.28387 0.15434,-0.20947 0.15434,-0.52641 v -2.70923 q 0,-0.2067 0.04961,-0.32246 h -0.631141 q 0.05512,0.113 0.05512,0.32246 v 3.2439 q 0,0.14608 -0.08268,0.27561 z m -0.892968,-0.0386 q 0.01102,-0.0744 0.08544,-0.16812 0.07441,-0.0965 0.07441,-0.17639 0,-0.0827 -0.06339,-0.13505 -0.06063,-0.0551 -0.146072,-0.0551 -0.07993,0 -0.146072,0.0551 -0.06339,0.0524 -0.06339,0.13505 0,0.23151 0.259071,0.34451 z"
         id="path464905"
         style="fill:none;stroke:url(#linearGradient510694);stroke-width:0.365;stroke-miterlimit:4;stroke-dasharray:none" />
      <path
         d="m 57.976358,145.15529 q -0.09095,-0.0193 -0.09095,-0.10198 0,-0.0331 0.02481,-0.0634 0.02756,-0.0331 0.06615,-0.0331 0.118511,0 0.212217,-0.0689 0.09646,-0.0689 0.137804,-0.17915 l 1.331184,-3.46989 q 0.01654,-0.0579 0.09095,-0.0579 0.06063,0 0.08819,0.0579 l 1.463475,3.35138 q 0.04961,0.113 0.09095,0.18466 0.0441,0.0717 0.115755,0.12678 0.07166,0.0551 0.159852,0.0551 0.03858,0.008 0.06339,0.0358 0.02756,0.0248 0.02756,0.0606 0,0.0386 -0.03032,0.0717 -0.02756,0.0303 -0.06063,0.0303 H 59.99656 q -0.09095,-0.0193 -0.09095,-0.10198 0,-0.0331 0.0248,-0.0634 0.02756,-0.0331 0.06615,-0.0331 0.08268,0 0.220486,-0.0551 0.14056,-0.0551 0.14056,-0.11851 0,-0.12127 -0.06339,-0.32522 -0.06339,-0.20395 -0.146072,-0.41341 h -1.240233 q -0.07993,0.34727 -0.07993,0.55122 0,0.16536 0.04961,0.26458 0.05236,0.0965 0.203949,0.0965 0.09095,0.0221 0.09095,0.0965 0,0.0413 -0.03032,0.0717 -0.03032,0.0303 -0.06063,0.0303 z m 0.427191,-0.19844 h 0.305924 q -0.07993,-0.14331 -0.07993,-0.36104 0,-0.0276 0.0055,-0.0744 0.0055,-0.0469 0.0055,-0.0717 l -0.129535,0.33349 q -0.05236,0.11575 -0.107487,0.17363 z m 2.07808,0 h 0.80753 q -0.07993,-0.0882 -0.170877,-0.28663 l -1.364257,-3.12814 -0.209461,0.54294 q 0.121267,0.23978 0.37207,0.8406 0.253559,0.60083 0.446484,1.14102 0.192925,0.54019 0.192925,0.71658 0,0.0992 -0.07441,0.17363 z m -1.524109,-1.1107 h 1.11621 q -0.09371,-0.24253 -0.259071,-0.63114 -0.162608,-0.39136 -0.355533,-0.82682 -0.09095,0.24805 -0.187414,0.50987 -0.09371,0.25907 -0.1819,0.5209 -0.08544,0.25907 -0.132292,0.42719 z"
         id="path464907"
         style="fill:none;stroke:url(#linearGradient510694);stroke-width:0.365;stroke-miterlimit:4;stroke-dasharray:none" />
      <path
         d="m 62.920755,145.05331 q 0,-0.0772 0.09095,-0.0965 h 0.01654 q 0.198438,0 0.28112,-0.0248 0.08544,-0.0276 0.110243,-0.11025 0.02481,-0.0854 0.02481,-0.29765 v -0.85439 l -1.008724,-1.80522 q -0.05512,-0.0937 -0.107486,-0.17639 -0.04961,-0.0854 -0.06339,-0.10473 -0.04134,-0.0634 -0.07717,-0.0799 -0.03307,-0.0165 -0.124024,-0.0165 -0.03858,0 -0.06614,-0.0331 -0.02481,-0.0358 -0.02481,-0.0689 0,-0.0772 0.09095,-0.0965 h 1.444183 q 0.03583,0 0.06339,0.0303 0.02756,0.0303 0.02756,0.0662 0,0.0827 -0.09095,0.10197 -0.107487,0 -0.157096,0.011 -0.01378,0 -0.03583,0.011 -0.0055,0 -0.01102,0.003 -0.0028,0 -0.0055,0.003 0,0.0358 0.01654,0.0799 0.01654,0.0413 0.03583,0.0772 0.01929,0.0358 0.05512,0.091 l 0.840602,1.50206 0.741384,-1.19062 q 0.06063,-0.0992 0.06063,-0.21498 0,-0.15434 -0.107487,-0.26182 -0.104731,-0.11025 -0.259071,-0.11025 -0.03583,0 -0.06339,-0.0331 -0.02756,-0.0331 -0.02756,-0.0689 0,-0.0358 0.0248,-0.0606 0.02756,-0.0276 0.06615,-0.0358 h 1.061089 q 0.03583,0 0.06339,0.0303 0.02756,0.0303 0.02756,0.0662 0,0.0827 -0.09095,0.10197 -0.06615,0 -0.146072,0.0772 -0.07993,0.0744 -0.170877,0.19844 -0.09095,0.12127 -0.15434,0.22324 -0.06063,0.0992 -0.115755,0.19017 l -0.790993,1.2678 v 1.0914 q 0,0.16261 0.01378,0.24254 0.01654,0.0772 0.05788,0.11575 0.0441,0.0386 0.12678,0.0524 0.08544,0.011 0.237022,0.011 0.03583,0 0.06339,0.0303 0.02756,0.0303 0.02756,0.0661 0,0.0827 -0.09095,0.10198 h -1.788692 q -0.03583,0 -0.06339,-0.0331 -0.02756,-0.0331 -0.02756,-0.0689 z m 0.655945,-0.0965 h 0.658702 q -0.06615,-0.12402 -0.06615,-0.42168 v -1.01148 q 0,-0.003 -0.0083,-0.008 -0.0055,-0.006 -0.0055,-0.008 l -0.917773,-1.64262 q -0.04961,-0.0827 -0.07166,-0.12403 -0.02205,-0.0441 -0.0441,-0.0992 -0.01929,-0.0579 -0.01929,-0.11575 0.0028,-0.0138 0.0028,-0.0221 0.0028,-0.011 0.0028,-0.0165 h -0.66697 q 0.101974,0.1571 0.162608,0.27561 l 1.028016,1.83555 q 0.01102,0.0221 0.01102,0.0441 v 0.89297 q 0,0.29766 -0.06615,0.42168 z m 1.648133,-3.24941 q 0.08544,-0.13229 0.173632,-0.22049 h -0.286631 q 0.07166,0.0882 0.112999,0.22049 z"
         id="path464909"
         style="fill:none;stroke:url(#linearGradient510694);stroke-width:0.365;stroke-miterlimit:4;stroke-dasharray:none" />
      <path
         d="m 66.150874,145.12773 v -1.14102 -0.0441 q 0,-0.14332 0.101974,-0.14332 0.04134,0 0.06615,0.0303 0.02756,0.0303 0.02756,0.0717 v 0.0469 q 0,0.17639 0.09371,0.36931 0.09371,0.19017 0.248047,0.35002 0.157096,0.15986 0.347265,0.25907 0.19017,0.0992 0.372071,0.0992 0.250802,0 0.413411,-0.0551 0.162608,-0.0551 0.253558,-0.19568 0.09095,-0.14332 0.09095,-0.38861 0,-0.33072 -0.28112,-0.5457 -0.281119,-0.21773 -0.69453,-0.38309 -0.21773,-0.0882 -0.405143,-0.19017 -0.184657,-0.10473 -0.336241,-0.23702 -0.151584,-0.1323 -0.248047,-0.30868 -0.09646,-0.17915 -0.09646,-0.38861 0,-0.57602 0.352778,-0.86265 0.355533,-0.28939 0.945333,-0.28939 0.242535,0 0.457509,0.0854 0.190169,0.0744 0.355533,0.0744 0.110243,0 0.21773,-0.0799 0.107487,-0.0799 0.132292,-0.0799 0.03307,0 0.06339,0.0276 0.03307,0.0248 0.03307,0.0634 v 1.04455 q 0,0.0441 -0.03307,0.0717 -0.03032,0.0248 -0.06339,0.0248 -0.02756,0 -0.06063,-0.0193 -0.03032,-0.0221 -0.03307,-0.0551 -0.0248,-0.16536 -0.126779,-0.33624 -0.101975,-0.17363 -0.256315,-0.31419 -0.15434,-0.14332 -0.333485,-0.226 -0.176389,-0.0827 -0.352778,-0.0827 -0.275607,0 -0.451996,0.15709 -0.173633,0.1571 -0.173633,0.42995 0,0.14883 0.118512,0.28112 0.118511,0.13229 0.286631,0.22875 0.170877,0.0965 0.385851,0.18466 0.21773,0.0882 0.322461,0.12954 0.283875,0.11024 0.520898,0.29765 0.237022,0.18466 0.380338,0.43546 0.146072,0.25081 0.146072,0.54846 0,0.29766 -0.135048,0.51814 -0.132291,0.22049 -0.355533,0.36105 -0.223243,0.1378 -0.493338,0.20395 -0.267339,0.0689 -0.551215,0.0689 -0.228754,0 -0.454752,-0.0854 -0.170877,-0.0744 -0.350021,-0.0744 -0.115755,0 -0.223242,0.0799 -0.107487,0.0799 -0.121268,0.0799 -0.03858,0 -0.07166,-0.0303 -0.03032,-0.0276 -0.03032,-0.0661 z m 0.195681,-0.20395 q 0.132291,-0.0551 0.250803,-0.0551 h 0.01654 q -0.15434,-0.14607 -0.267339,-0.31695 z m 0.909504,-1.65365 q 0.490582,0.20395 0.799262,0.46027 0.30868,0.25356 0.30868,0.65594 0,0.25632 -0.09095,0.44098 0.223242,-0.12678 0.344509,-0.31971 0.124023,-0.19292 0.124023,-0.43546 0,-0.37482 -0.264583,-0.6587 -0.264583,-0.28388 -0.655945,-0.43822 -0.369314,-0.14056 -0.606337,-0.2508 -0.237022,-0.113 -0.438216,-0.30592 -0.198437,-0.19293 -0.198437,-0.452 0,-0.23151 0.118511,-0.42995 -0.203949,0.11851 -0.300412,0.33073 -0.09371,0.21222 -0.09371,0.46578 0,0.23151 0.143316,0.41065 0.146072,0.17639 0.341753,0.2949 0.198437,0.11576 0.468532,0.23151 z m 1.207161,-1.44969 v -0.339 q -0.129536,0.0551 -0.248047,0.0551 0.143316,0.13505 0.248047,0.28388 z"
         id="path464911"
         style="fill:none;stroke:url(#linearGradient510694);stroke-width:0.365;stroke-miterlimit:4;stroke-dasharray:none" />
      <path
         d="m 72.980426,145.26278 q -0.44924,0 -0.824066,-0.14883 -0.37207,-0.14883 -0.636653,-0.41893 -0.261827,-0.27285 -0.402387,-0.65043 -0.14056,-0.38034 -0.14056,-0.82407 0,-0.44648 0.14056,-0.82406 0.143316,-0.38034 0.407899,-0.65044 0.267339,-0.27285 0.636653,-0.41892 0.369314,-0.14607 0.818554,-0.14607 0.330729,0 0.631141,0.13505 0.26734,0.12402 0.501606,0.12402 0.0689,0 0.115755,-0.0469 0.04961,-0.0496 0.04961,-0.12127 0,-0.0331 0.03032,-0.0606 0.03307,-0.0303 0.07166,-0.0303 0.03583,0 0.06615,0.0276 0.03032,0.0276 0.03032,0.0634 v 1.12999 q 0,0.0386 -0.03032,0.0661 -0.03032,0.0276 -0.06615,0.0276 -0.08819,0 -0.09646,-0.0717 -0.03859,-0.17915 -0.173633,-0.36656 -0.132292,-0.19017 -0.322461,-0.34175 -0.190169,-0.15434 -0.402387,-0.24529 -0.212217,-0.0909 -0.405143,-0.0909 -0.292144,0 -0.490581,0.18465 -0.198437,0.1819 -0.314192,0.47405 -0.115755,0.29214 -0.162609,0.60082 -0.0441,0.30868 -0.0441,0.58705 0,0.71106 0.23151,1.24023 0.231511,0.52641 0.851627,0.52641 0.396875,0 0.766189,-0.17088 0.369314,-0.17363 0.617361,-0.47404 0.04961,-0.0386 0.07993,-0.0386 0.04685,0 0.08268,0.0331 0.03583,0.0331 0.03583,0.0799 0,0.0358 -0.01654,0.0606 -0.305925,0.37207 -0.733116,0.57602 -0.427192,0.20395 -0.903993,0.20395 z m -0.60358,-0.28112 q -0.350021,-0.26183 -0.476801,-0.73036 -0.126779,-0.47129 -0.126779,-1.03078 0,-0.24253 0.0248,-0.47404 0.02481,-0.23427 0.07993,-0.45475 0.05788,-0.22324 0.157096,-0.42995 0.09922,-0.20946 0.250803,-0.36931 -0.551215,0.19843 -0.832335,0.66145 -0.281119,0.46027 -0.281119,1.0666 0,0.64217 0.300412,1.10795 0.303168,0.46577 0.903992,0.65319 z m 1.901691,-3.02617 v -0.35554 q -0.0248,0.0138 -0.06339,0.0276 -0.06615,0.011 -0.09371,0.011 -0.08544,0 -0.132291,-0.006 0.1819,0.1626 0.289387,0.32246 z"
         id="path464913"
         style="fill:none;stroke:url(#linearGradient510694);stroke-width:0.365;stroke-miterlimit:4;stroke-dasharray:none" />
      <path
         d="m 75.011653,145.15529 q -0.03307,0 -0.06063,-0.0331 -0.02756,-0.0331 -0.02756,-0.0689 0,-0.0772 0.08819,-0.0965 h 0.01929 q 0.184657,0 0.256315,-0.0138 0.07166,-0.0165 0.101974,-0.0854 0.03032,-0.0689 0.03032,-0.23426 v -2.81396 q 0,-0.15709 -0.03583,-0.22324 -0.03307,-0.0689 -0.110243,-0.0827 -0.07717,-0.0165 -0.261827,-0.0165 -0.03583,0 -0.06339,-0.0331 -0.0248,-0.0358 -0.0248,-0.0689 0,-0.0772 0.08819,-0.0965 h 1.683961 q 0.03583,0 0.06339,0.0303 0.02756,0.0303 0.02756,0.0662 0,0.0827 -0.09095,0.10197 h -0.01654 q -0.179145,0 -0.245291,0.0165 -0.06614,0.0138 -0.09095,0.0827 -0.02481,0.0689 -0.02481,0.23427 v 2.80293 q 0,0.12126 0.03583,0.22875 0.03583,0.10473 0.132292,0.10473 h 0.388606 q 0.283876,0 0.5898,-0.12953 0.305924,-0.12954 0.52641,-0.35554 0.223242,-0.22875 0.26734,-0.50712 0.0083,-0.0744 0.09646,-0.0744 0.03858,0 0.06615,0.0331 0.03032,0.0303 0.03032,0.0689 l -0.159852,1.08864 q -0.01378,0.0634 -0.08819,0.0744 z m 0.553971,-0.19844 h 0.620117 q -0.06615,-0.15158 -0.06615,-0.3197 v -2.82774 q 0,-0.22048 0.0441,-0.32246 h -0.598068 q 0.05236,0.113 0.05236,0.32246 v 2.82774 q 0,0.2067 -0.05236,0.3197 z m 2.083592,0 h 0.457509 l 0.06063,-0.38861 q -0.206705,0.22049 -0.518142,0.38861 z"
         id="path464915"
         style="fill:none;stroke:url(#linearGradient510694);stroke-width:0.365;stroke-miterlimit:4;stroke-dasharray:none" />
      <path
         d="m 80.799409,145.26278 q -0.446484,0 -0.82131,-0.14608 -0.374826,-0.14607 -0.63941,-0.41892 -0.264583,-0.27285 -0.407899,-0.65043 -0.140559,-0.37759 -0.140559,-0.82683 0,-0.44924 0.143315,-0.82682 0.143316,-0.38034 0.405143,-0.65043 0.264584,-0.2701 0.63941,-0.41617 0.374826,-0.14607 0.82131,-0.14607 0.44924,0 0.824066,0.14883 0.374826,0.14607 0.636653,0.41616 0.261827,0.26734 0.405143,0.64768 0.143316,0.37758 0.143316,0.82682 0,0.44924 -0.143316,0.82958 -0.143316,0.37759 -0.405143,0.64768 -0.261827,0.2701 -0.636653,0.41892 -0.374826,0.14608 -0.824066,0.14608 z m 0,-0.19844 q 0.413411,0 0.639409,-0.2949 0.225998,-0.2949 0.300412,-0.70556 0.07441,-0.41065 0.07441,-0.83784 0,-0.42719 -0.07441,-0.84061 -0.07441,-0.41616 -0.300412,-0.71106 -0.225998,-0.2949 -0.639409,-0.2949 -0.413411,0 -0.642166,0.2949 -0.225998,0.2949 -0.300412,0.70555 -0.07441,0.4079 -0.07441,0.83234 v 0.008 q 0,0.42444 0.07441,0.84061 0.07441,0.41341 0.300412,0.70831 0.228755,0.2949 0.642166,0.2949 z m -0.768945,-0.14607 q -0.259071,-0.28939 -0.352777,-0.73588 -0.09371,-0.44924 -0.09371,-0.96187 0,-0.30592 0.03307,-0.61736 0.03583,-0.31143 0.132291,-0.59255 0.09646,-0.28112 0.28112,-0.48507 -0.347265,0.14056 -0.581532,0.39687 -0.234266,0.25356 -0.350021,0.58705 -0.112999,0.33073 -0.112999,0.71106 0,0.37759 0.112999,0.71383 0.115755,0.33624 0.347265,0.5898 0.231511,0.2508 0.584288,0.39412 z m 1.535133,0 q 0.352778,-0.14332 0.584288,-0.39412 0.23151,-0.25356 0.344509,-0.5898 0.115756,-0.33624 0.115756,-0.71383 0,-0.38033 -0.115756,-0.71106 -0.112999,-0.33349 -0.347265,-0.58705 -0.234266,-0.25631 -0.581532,-0.39687 0.259071,0.28387 0.352778,0.73311 0.09371,0.44649 0.09371,0.96187 0,1.20441 -0.446484,1.69775 z"
         id="path464917"
         style="fill:none;stroke:url(#linearGradient510694);stroke-width:0.365;stroke-miterlimit:4;stroke-dasharray:none" />
      <path
         d="m 83.197194,145.12773 v -1.14102 -0.0441 q 0,-0.14332 0.101974,-0.14332 0.04134,0 0.06615,0.0303 0.02756,0.0303 0.02756,0.0717 v 0.0469 q 0,0.17639 0.09371,0.36931 0.09371,0.19017 0.248047,0.35002 0.157096,0.15986 0.347265,0.25907 0.19017,0.0992 0.37207,0.0992 0.250803,0 0.413412,-0.0551 0.162608,-0.0551 0.253558,-0.19568 0.09095,-0.14332 0.09095,-0.38861 0,-0.33072 -0.28112,-0.5457 -0.281119,-0.21773 -0.69453,-0.38309 -0.21773,-0.0882 -0.405143,-0.19017 -0.184657,-0.10473 -0.336241,-0.23702 -0.151584,-0.1323 -0.248047,-0.30868 -0.09646,-0.17915 -0.09646,-0.38861 0,-0.57602 0.352778,-0.86265 0.355533,-0.28939 0.945333,-0.28939 0.242535,0 0.457509,0.0854 0.190169,0.0744 0.355533,0.0744 0.110243,0 0.21773,-0.0799 0.107487,-0.0799 0.132292,-0.0799 0.03307,0 0.06339,0.0276 0.03307,0.0248 0.03307,0.0634 v 1.04455 q 0,0.0441 -0.03307,0.0717 -0.03032,0.0248 -0.06339,0.0248 -0.02756,0 -0.06063,-0.0193 -0.03032,-0.0221 -0.03307,-0.0551 -0.02481,-0.16536 -0.126779,-0.33624 -0.101975,-0.17363 -0.256315,-0.31419 -0.15434,-0.14332 -0.333485,-0.226 -0.176389,-0.0827 -0.352778,-0.0827 -0.275607,0 -0.451996,0.15709 -0.173633,0.1571 -0.173633,0.42995 0,0.14883 0.118512,0.28112 0.118511,0.13229 0.286631,0.22875 0.170877,0.0965 0.385851,0.18466 0.21773,0.0882 0.32246,0.12954 0.283876,0.11024 0.520899,0.29765 0.237022,0.18466 0.380338,0.43546 0.146072,0.25081 0.146072,0.54846 0,0.29766 -0.135048,0.51814 -0.132292,0.22049 -0.355534,0.36105 -0.223242,0.1378 -0.493337,0.20395 -0.267339,0.0689 -0.551215,0.0689 -0.228754,0 -0.454752,-0.0854 -0.170877,-0.0744 -0.350021,-0.0744 -0.115756,0 -0.223242,0.0799 -0.107487,0.0799 -0.121268,0.0799 -0.03858,0 -0.07166,-0.0303 -0.03032,-0.0276 -0.03032,-0.0661 z m 0.195681,-0.20395 q 0.132291,-0.0551 0.250803,-0.0551 h 0.01654 q -0.15434,-0.14607 -0.267339,-0.31695 z m 0.909504,-1.65365 q 0.490582,0.20395 0.799262,0.46027 0.30868,0.25356 0.30868,0.65594 0,0.25632 -0.09095,0.44098 0.223242,-0.12678 0.344509,-0.31971 0.124023,-0.19292 0.124023,-0.43546 0,-0.37482 -0.264583,-0.6587 -0.264583,-0.28388 -0.655945,-0.43822 -0.369314,-0.14056 -0.606337,-0.2508 -0.237022,-0.113 -0.438216,-0.30592 -0.198437,-0.19293 -0.198437,-0.452 0,-0.23151 0.118511,-0.42995 -0.203949,0.11851 -0.300412,0.33073 -0.09371,0.21222 -0.09371,0.46578 0,0.23151 0.143316,0.41065 0.146071,0.17639 0.341753,0.2949 0.198437,0.11576 0.468532,0.23151 z m 1.207161,-1.44969 v -0.339 q -0.129536,0.0551 -0.248047,0.0551 0.143316,0.13505 0.248047,0.28388 z"
         id="path464919"
         style="fill:none;stroke:url(#linearGradient510694);stroke-width:0.365;stroke-miterlimit:4;stroke-dasharray:none" />
      <path
         d="m 86.21234,145.12222 q -0.02205,-0.0441 -0.02205,-0.0689 0,-0.022 0.02205,-0.0661 0.03583,-0.0248 0.06615,-0.0358 0.190169,0 0.264583,-0.0138 0.07717,-0.0165 0.110243,-0.0827 0.03307,-0.0662 0.03307,-0.23151 v -2.82222 q 0,-0.21222 -0.07717,-0.25632 -0.07717,-0.0468 -0.330729,-0.0468 -0.03307,-0.0138 -0.06615,-0.0331 -0.02205,-0.0496 -0.02205,-0.0689 0,-0.0193 0.02205,-0.0689 0.03307,-0.0221 0.06615,-0.0331 h 3.095071 q 0.03307,0.0138 0.06615,0.0331 0.01378,0.0303 0.02205,0.0579 v 0.92604 q -0.0083,0.0248 -0.02205,0.0551 -0.06063,0.0358 -0.07717,0.0358 -0.01929,0 -0.07993,-0.0358 -0.01378,-0.0303 -0.02205,-0.0551 0,-0.39963 -0.361046,-0.60634 -0.361045,-0.2067 -0.802017,-0.2067 h -0.361046 q -0.170877,0 -0.170877,0.32797 v 1.24023 q 0.278364,0 0.485069,-0.0827 0.206706,-0.0854 0.319705,-0.26734 0.115755,-0.1819 0.115755,-0.46302 0.01102,-0.0248 0.01102,-0.0303 0.0028,-0.006 0.01103,-0.0248 0.06063,-0.0331 0.07993,-0.0331 0.03032,0 0.07993,0.0331 0.01378,0.0303 0.02205,0.0551 v 1.71704 q -0.0083,0.0248 -0.02205,0.0551 -0.04685,0.0358 -0.07993,0.0358 -0.02481,0 -0.07993,-0.0358 -0.0083,-0.0193 -0.01103,-0.0248 0,-0.006 -0.01102,-0.0303 0,-0.70005 -0.920529,-0.70005 v 1.35324 q 0,0.32797 0.170877,0.32797 h 0.416167 q 0.457508,0 0.876432,-0.36105 0.292144,-0.27285 0.405143,-0.49058 0.03307,-0.0634 0.0689,-0.2067 0.03583,-0.14332 0.04961,-0.17088 0.05512,-0.0331 0.07993,-0.0331 0.01929,0 0.07993,0.0331 0.02205,0.0441 0.02205,0.0717 l -0.159853,1.27055 q -0.0055,0.0248 -0.02205,0.0579 -0.03307,0.022 -0.06615,0.0331 h -3.20807 q -0.03307,-0.0138 -0.06615,-0.0331 z m 0.631141,-0.17088 h 0.587044 q -0.06615,-0.15158 -0.06615,-0.30317 v -1.46899 q 0.0055,0.0248 0.02205,0.0579 0.05512,0.0331 0.07717,0.0331 h 0.101974 v -0.20395 h -0.101974 q -0.02481,0 -0.07717,0.0358 -0.01378,0.0303 -0.02205,0.0551 v -1.35598 q 0,-0.14883 0.06615,-0.30317 h -0.587044 q 0.04685,0.12402 0.04685,0.30317 v 2.84702 q 0,0.17915 -0.04685,0.30317 z m 2.025714,0 h 0.515386 l 0.06063,-0.49058 q -0.225998,0.28387 -0.57602,0.49058 z"
         id="path464921"
         style="fill:none;stroke:url(#linearGradient510694);stroke-width:0.365;stroke-miterlimit:4;stroke-dasharray:none" />
      <path
         d="m 90.754348,145.05331 q 0,-0.0358 0.02481,-0.0606 0.02756,-0.0276 0.06615,-0.0358 0.198438,0 0.283876,-0.0138 0.08819,-0.0165 0.129536,-0.0854 0.0441,-0.0717 0.0441,-0.23426 v -3.1309 q -0.239779,0 -0.485069,0.11024 -0.242535,0.10749 -0.399631,0.30592 -0.15434,0.19568 -0.15434,0.44098 0,0 -0.02205,0.0579 -0.03859,0.0386 -0.07993,0.0386 -0.09371,0 -0.09371,-0.0965 v -0.97014 q 0,-0.0717 0.08819,-0.0909 h 3.219095 q 0.03032,0 0.05788,0.0331 0.03032,0.0303 0.03032,0.0579 v 0.97014 q 0,0.0441 -0.03307,0.0716 -0.03032,0.0248 -0.06615,0.0248 -0.09646,0 -0.09646,-0.0965 0,-0.2453 -0.159853,-0.44098 -0.157096,-0.19843 -0.402386,-0.30592 -0.242535,-0.11024 -0.482313,-0.11024 v 3.14468 q 0,0.15709 0.0441,0.22324 0.04685,0.0661 0.132291,0.0827 0.08819,0.0138 0.28112,0.0138 0.03583,0 0.06339,0.0303 0.02756,0.0303 0.02756,0.0661 0,0.0827 -0.09095,0.10198 h -1.835546 q -0.03307,0 -0.06339,-0.0303 -0.02756,-0.0331 -0.02756,-0.0717 z m 0.694531,-0.0965 h 0.628385 q -0.05237,-0.113 -0.05237,-0.3197 v -3.1502 h -0.523654 v 3.1502 q 0,0.21773 -0.05236,0.3197 z m 1.468987,-3.4699 q 0.201194,0.11576 0.350022,0.29766 v -0.29766 z m -2.654099,0.29766 q 0.137803,-0.17915 0.344509,-0.29766 h -0.344509 z"
         id="path464923"
         style="fill:none;stroke:url(#linearGradient510694);stroke-width:0.365;stroke-miterlimit:4;stroke-dasharray:none" />
    </g>
  </g>
</svg>
